[
  {
    "prompt": "[LANG: EN] [GENRE: DJ] [TEMPO: 128] [MOOD: ENERGETIC] Generate a high-energy DJ loop",
    "tokens": "TEMPO_128 VELOCITY_28 NOTE_ON_60 TIME_SHIFT_25 NOTE_OFF_60 TIME_SHIFT_25 VELOCITY_30 NOTE_ON_64 TIME_SHIFT_25 NOTE_OFF_64 TIME_SHIFT_25 VELOCITY_28 NOTE_ON_67 TIME_SHIFT_25 NOTE_OFF_67 TIME_SHIFT_25 VELOCITY_32 NOTE_ON_72 TIME_SHIFT_50 NOTE_OFF_72 TIME_SHIFT_25 VELOCITY_28 NOTE_ON_60 TIME_SHIFT_25 NOTE_OFF_60 TIME_SHIFT_25 VELOCITY_30 NOTE_ON_64 TIME_SHIFT_25 NOTE_OFF_64 TIME_SHIFT_25 VELOCITY_28 NOTE_ON_67 TIME_SHIFT_25 NOTE_OFF_67 TIME_SHIFT_25 VELOCITY_32 NOTE_ON_72 TIME_SHIFT_50 NOTE_OFF_72"
  },
  {
    "prompt": "[LANG: EN] [GENRE: DJ] [TEMPO: 130] [MOOD: DARK] Create a dark techno beat",
    "tokens": "TEMPO_130 VELOCITY_24 NOTE_ON_48 TIME_SHIFT_50 NOTE_OFF_48 TIME_SHIFT_25 VELOCITY_20 NOTE_ON_51 TIME_SHIFT_25 NOTE_OFF_51 TIME_SHIFT_50 VELOCITY_26 NOTE_ON_55 TIME_SHIFT_25 NOTE_OFF_55 TIME_SHIFT_25 VELOCITY_22 NOTE_ON_48 TIME_SHIFT_50 NOTE_OFF_48 TIME_SHIFT_25 VELOCITY_20 NOTE_ON_53 TIME_SHIFT_25 NOTE_OFF_53 TIME_SHIFT_50 VELOCITY_24 NOTE_ON_56 TIME_SHIFT_25 NOTE_OFF_56 TIME_SHIFT_25 VELOCITY_28 NOTE_ON_48 TIME_SHIFT_50 NOTE_OFF_48"
  },
  {
    "prompt": "[LANG: EN] [GENRE: DJ] [TEMPO: 120] [MOOD: CHILL] Make a chill house groove",
    "tokens": "TEMPO_120 VELOCITY_18 NOTE_ON_60 TIME_SHIFT_50 NOTE_OFF_60 TIME_SHIFT_50 VELOCITY_16 NOTE_ON_63 TIME_SHIFT_50 NOTE_OFF_63 TIME_SHIFT_50 VELOCITY_18 NOTE_ON_67 TIME_SHIFT_100 NOTE_OFF_67 TIME_SHIFT_50 VELOCITY_16 NOTE_ON_60 TIME_SHIFT_50 NOTE_OFF_60 TIME_SHIFT_50 VELOCITY_18 NOTE_ON_65 TIME_SHIFT_50 NOTE_OFF_65 TIME_SHIFT_50 VELOCITY_16 NOTE_ON_68 TIME_SHIFT_100 NOTE_OFF_68"
  },
  {
    "prompt": "[LANG: ID] [GENRE: DJ] [TEMPO: 128] [MOOD: ENERGETIC] Buatkan musik DJ energik tempo cepat",
    "tokens": "TEMPO_128 VELOCITY_30 NOTE_ON_60 TIME_SHIFT_25 NOTE_OFF_60 TIME_SHIFT_12 VELOCITY_28 NOTE_ON_64 TIME_SHIFT_25 NOTE_OFF_64 TIME_SHIFT_12 VELOCITY_30 NOTE_ON_67 TIME_SHIFT_25 NOTE_OFF_67 TIME_SHIFT_12 VELOCITY_32 NOTE_ON_72 TIME_SHIFT_50 NOTE_OFF_72 TIME_SHIFT_25 VELOCITY_28 NOTE_ON_60 TIME_SHIFT_25 NOTE_OFF_60 TIME_SHIFT_12 VELOCITY_30 NOTE_ON_64 TIME_SHIFT_25 NOTE_OFF_64 TIME_SHIFT_12 VELOCITY_28 NOTE_ON_67 TIME_SHIFT_25 NOTE_OFF_67 TIME_SHIFT_12 VELOCITY_32 NOTE_ON_72 TIME_SHIFT_50 NOTE_OFF_72"
  },
  {
    "prompt": "[LANG: ID] [GENRE: DJ] [TEMPO: 120] [MOOD: CHILL] Buatkan musik DJ santai tempo 120",
    "tokens": "TEMPO_120 VELOCITY_16 NOTE_ON_62 TIME_SHIFT_50 NOTE_OFF_62 TIME_SHIFT_50 VELOCITY_14 NOTE_ON_65 TIME_SHIFT_50 NOTE_OFF_65 TIME_SHIFT_50 VELOCITY_16 NOTE_ON_69 TIME_SHIFT_100 NOTE_OFF_69 TIME_SHIFT_50 VELOCITY_14 NOTE_ON_62 TIME_SHIFT_50 NOTE_OFF_62 TIME_SHIFT_50 VELOCITY_16 NOTE_ON_67 TIME_SHIFT_50 NOTE_OFF_67 TIME_SHIFT_50 VELOCITY_14 NOTE_ON_70 TIME_SHIFT_100 NOTE_OFF_70"
  },
  {
    "prompt": "[LANG: EN] [GENRE: DJ] [TEMPO: 140] [MOOD: AGGRESSIVE] Build an aggressive drop",
    "tokens": "TEMPO_140 VELOCITY_32 NOTE_ON_48 TIME_SHIFT_12 NOTE_OFF_48 TIME_SHIFT_12 VELOCITY_32 NOTE_ON_48 TIME_SHIFT_12 NOTE_OFF_48 TIME_SHIFT_12 VELOCITY_30 NOTE_ON_55 TIME_SHIFT_25 NOTE_OFF_55 TIME_SHIFT_12 VELOCITY_32 NOTE_ON_60 TIME_SHIFT_12 NOTE_OFF_60 TIME_SHIFT_12 VELOCITY_32 NOTE_ON_48 TIME_SHIFT_12 NOTE_OFF_48 TIME_SHIFT_12 VELOCITY_30 NOTE_ON_53 TIME_SHIFT_25 NOTE_OFF_53 TIME_SHIFT_12 VELOCITY_32 NOTE_ON_60 TIME_SHIFT_12 NOTE_OFF_60"
  },
  {
    "prompt": "[LANG: EN] [GENRE: DJ] [TEMPO: 125] [MOOD: GROOVY] Create a funky bass groove",
    "tokens": "TEMPO_125 VELOCITY_24 NOTE_ON_36 TIME_SHIFT_50 NOTE_OFF_36 TIME_SHIFT_25 VELOCITY_22 NOTE_ON_38 TIME_SHIFT_25 NOTE_OFF_38 TIME_SHIFT_25 VELOCITY_26 NOTE_ON_41 TIME_SHIFT_50 NOTE_OFF_41 TIME_SHIFT_25 VELOCITY_24 NOTE_ON_43 TIME_SHIFT_25 NOTE_OFF_43 TIME_SHIFT_25 VELOCITY_22 NOTE_ON_36 TIME_SHIFT_50 NOTE_OFF_36 TIME_SHIFT_25 VELOCITY_26 NOTE_ON_40 TIME_SHIFT_25 NOTE_OFF_40 TIME_SHIFT_25 VELOCITY_24 NOTE_ON_43 TIME_SHIFT_50 NOTE_OFF_43"
  },
  {
    "prompt": "[LANG: ID] [GENRE: DJ] [TEMPO: 135] [MOOD: DARK] Buat beat techno gelap tempo 135",
    "tokens": "TEMPO_135 VELOCITY_22 NOTE_ON_48 TIME_SHIFT_50 NOTE_OFF_48 TIME_SHIFT_25 VELOCITY_20 NOTE_ON_51 TIME_SHIFT_25 NOTE_OFF_51 TIME_SHIFT_50 VELOCITY_24 NOTE_ON_54 TIME_SHIFT_25 NOTE_OFF_54 TIME_SHIFT_25 VELOCITY_22 NOTE_ON_48 TIME_SHIFT_50 NOTE_OFF_48 TIME_SHIFT_25 VELOCITY_20 NOTE_ON_52 TIME_SHIFT_25 NOTE_OFF_52 TIME_SHIFT_50 VELOCITY_24 NOTE_ON_55 TIME_SHIFT_25 NOTE_OFF_55"
  },
  {
    "prompt": "[LANG: EN] [GENRE: DJ] [TEMPO: 126] [MOOD: UPLIFTING] Generate an uplifting trance melody",
    "tokens": "TEMPO_126 VELOCITY_20 NOTE_ON_72 TIME_SHIFT_50 NOTE_OFF_72 TIME_SHIFT_25 VELOCITY_22 NOTE_ON_74 TIME_SHIFT_50 NOTE_OFF_74 TIME_SHIFT_25 VELOCITY_24 NOTE_ON_76 TIME_SHIFT_50 NOTE_OFF_76 TIME_SHIFT_25 VELOCITY_26 NOTE_ON_79 TIME_SHIFT_100 NOTE_OFF_79 TIME_SHIFT_50 VELOCITY_24 NOTE_ON_76 TIME_SHIFT_50 NOTE_OFF_76 TIME_SHIFT_25 VELOCITY_22 NOTE_ON_74 TIME_SHIFT_50 NOTE_OFF_74 TIME_SHIFT_25 VELOCITY_20 NOTE_ON_72 TIME_SHIFT_100 NOTE_OFF_72"
  },
  {
    "prompt": "[LANG: ID] [GENRE: DJ] [TEMPO: 124] [MOOD: HAPPY] Buatkan lagu DJ ceria tempo 124",
    "tokens": "TEMPO_124 VELOCITY_22 NOTE_ON_60 TIME_SHIFT_25 NOTE_OFF_60 TIME_SHIFT_25 VELOCITY_24 NOTE_ON_64 TIME_SHIFT_25 NOTE_OFF_64 TIME_SHIFT_25 VELOCITY_22 NOTE_ON_67 TIME_SHIFT_50 NOTE_OFF_67 TIME_SHIFT_25 VELOCITY_26 NOTE_ON_72 TIME_SHIFT_50 NOTE_OFF_72 TIME_SHIFT_50 VELOCITY_24 NOTE_ON_67 TIME_SHIFT_25 NOTE_OFF_67 TIME_SHIFT_25 VELOCITY_22 NOTE_ON_64 TIME_SHIFT_25 NOTE_OFF_64 TIME_SHIFT_25 VELOCITY_20 NOTE_ON_60 TIME_SHIFT_50 NOTE_OFF_60"
  }
]
